<?xml version="1.0" encoding="UTF-8" standalone="no"?>
<!-- Created with Inkscape (http://www.inkscape.org/) -->

<svg
   xmlns:dc="http://purl.org/dc/elements/1.1/"
   xmlns:cc="http://creativecommons.org/ns#"
   xmlns:rdf="http://www.w3.org/1999/02/22-rdf-syntax-ns#"
   xmlns:svg="http://www.w3.org/2000/svg"
   xmlns="http://www.w3.org/2000/svg"
   version="1.1"
   width="500"
   height="500"
   viewBox="0 0 500 500"
   id="Layer_1"
   xml:space="preserve"><metadata
     id="metadata17"><rdf:RDF><cc:Work
         rdf:about=""><dc:format>image/svg+xml</dc:format><dc:type
           rdf:resource="http://purl.org/dc/dcmitype/StillImage" /><dc:title></dc:title></cc:Work></rdf:RDF></metadata><defs
     id="defs15" /><path
     d="m 174.04,479.506 c -15.181,0 -30.84,-1.418 -46.539,-4.213 l -18.252,-3.247 16.814,-7.81 c 18.385,-8.538 53.813,-35.419 64.816,-47.362 C 111.712,389.648 57.056,310.19 57.056,220.876 c 0,-113.54 86.681,-205.91 193.228,-205.91 106.545,0 193.226,92.37 193.226,205.91 0,57.745 -24.945,114.974 -70.242,161.146 l -3.432,3.521 c -27.347,28.116 -91.385,93.963 -195.796,93.963 z m -27.812,-13.293 c 9.389,1.064 18.694,1.601 27.812,1.601 99.472,0 161.099,-63.364 187.414,-90.424 l 3.471,-3.558 c 43.137,-43.971 66.895,-98.293 66.895,-152.957 0,-107.092 -81.436,-194.219 -181.535,-194.219 -100.099,0 -181.537,87.127 -181.537,194.22 0,86.878 54.572,163.822 132.708,187.116 l 4.49,1.338 -0.33,4.674 c -0.745,10.584 -35.705,37.339 -59.388,52.209 z"
     id="path3"
     style="fill:#ffffff" /><path
     d="m 336.556,257.256 c 9.899,-24.042 23.763,-57.607 11.77,-83.346 -3.956,-8.491 -12.422,-12.441 -21.227,-13.267 -13.183,-1.236 -23.423,7.095 -29.288,18.062 3.561,0.465 7.123,0.931 10.685,1.396 -16.633,-44.073 -48.023,-74.579 -96.066,-78.746 -19.016,-1.649 -38.002,2.91 -48.458,20.07 -9.57,15.705 -4.465,35.237 6.148,48.774 1.896,-3.257 3.792,-6.514 5.688,-9.77 -26.005,-9.368 -44.852,18.603 -47.151,41.491 -2.475,24.642 12.614,47.006 34.14,57.596 29.432,14.479 67.76,7.657 99.318,6.102 22.946,-1.131 45.885,-2.482 68.804,-4.071 7.478,-0.519 7.529,-12.214 0,-11.691 -43.719,3.032 -87.585,5.765 -131.415,6.214 -26.043,0.267 -52.134,-13.475 -58.251,-40.014 -4.219,-18.302 7.65,-52.924 31.446,-44.351 6.147,2.214 8.886,-5.691 5.688,-9.77 -8.896,-11.348 -10.865,-27.371 -1.295,-38.95 10.957,-13.257 31.558,-11.113 46.624,-8.478 37.14,6.496 60.719,34.822 73.506,68.704 1.666,4.416 8.098,6.233 10.685,1.396 4.884,-9.133 14.679,-16.181 25.203,-10.562 6.03,3.22 7.332,11.41 7.759,17.487 1.486,21.147 -7.717,43.503 -15.587,62.616 -2.871,6.972 8.445,9.979 11.274,3.108 z"
     id="path5"
     style="fill:#ffffff" /><circle
     cx="213.95599"
     cy="292.189"
     r="8.6219997"
     id="circle7"
     style="fill:#ffffff" /><circle
     cx="288.48901"
     cy="292.189"
     r="8.6219997"
     id="circle9"
     style="fill:#ffffff" /><path
     d="m 199.932,324.806 c 7.502,14.03 15.004,28.059 22.506,42.089 2.068,3.867 7.994,3.736 10.095,0 7.892,-14.03 15.783,-28.059 23.675,-42.089 -3.365,0 -6.73,0 -10.095,0 7.307,14.03 14.614,28.059 21.921,42.089 2,3.841 8.077,3.775 10.095,0 7.502,-14.03 15.004,-28.059 22.506,-42.089 3.554,-6.646 -6.539,-12.551 -10.095,-5.901 -7.502,14.03 -15.004,28.06 -22.506,42.089 3.365,0 6.73,0 10.095,0 -7.307,-14.03 -14.614,-28.059 -21.921,-42.089 -2.032,-3.902 -8.011,-3.705 -10.095,0 -7.892,14.03 -15.783,28.06 -23.675,42.089 3.365,0 6.73,0 10.095,0 -7.502,-14.03 -15.004,-28.059 -22.506,-42.089 -3.556,-6.65 -13.649,-0.744 -10.095,5.901 l 0,0 z"
     id="path11"
     style="fill:#ffffff" /></svg>